<svg width="30" height="30" fill="none" xmlns="http://www.w3.org/2000/svg"><g clip-path="url(#a)" fill="#fff"><path d="M29.496 13.411 16.036 1.147a1.531 1.531 0 0 0-2.072 0L.504 13.41a1.528 1.528 0 0 0-.399 1.693 1.53 1.53 0 0 0 1.435.983h2.15v12.288c0 .487.395.882.882.882h7.378a.882.882 0 0 0 .882-.882v-7.461h4.336v7.461c0 .487.395.882.882.882h7.378a.882.882 0 0 0 .882-.882V16.087h2.15a1.53 1.53 0 0 0 1.435-.983 1.53 1.53 0 0 0-.399-1.693Z"/><path opacity=".6" d="M26.08 2.504h-5.925l6.807 6.19V3.385a.882.882 0 0 0-.883-.882Z"/></g><defs><clipPath id="a"><path fill="#fff" d="M0 0h30v30H0z"/></clipPath></defs></svg>