<svg width="30" height="30" fill="none" xmlns="http://www.w3.org/2000/svg"><path opacity=".6" d="M26.875 20H3.125c-.69 0-1.25.56-1.25 1.25v5.625c0 .69.56 1.25 1.25 1.25h23.75c.69 0 1.25-.56 1.25-1.25V21.25c0-.69-.56-1.25-1.25-1.25Z" fill="#fff"/><path d="M20 6.875a.625.625 0 0 1-.625-.625V3.125h-8.75V6.25a.625.625 0 1 1-1.25 0V2.5c0-.345.28-.625.625-.625h10c.346 0 .625.28.625.625v3.75c0 .345-.28.625-.625.625Z" fill="#fff"/><path fill-rule="evenodd" clip-rule="evenodd" d="M1.875 5.625h26.25c.69 0 1.25.56 1.25 1.25V20c0 .69-.56 1.25-1.25 1.25H1.875c-.69 0-1.25-.56-1.25-1.25V6.875c0-.69.56-1.25 1.25-1.25Zm12.224 10.639a1 1 0 1 0 0 2h2a1 1 0 1 0 0-2h-2Z" fill="#fff"/></svg>